<svg xmlns="http://www.w3.org/2000/svg" viewBox="0 0 96 96" role="img" aria-labelledby="title">
  <title id="title">Login With Email Code</title>
  <rect width="96" height="96" rx="18" fill="#1f2937"/>
  <path fill="#ffffff" d="M20 28h56c3.3 0 6 2.7 6 6v28c0 3.3-2.7 6-6 6H20c-3.3 0-6-2.7-6-6V34c0-3.3 2.7-6 6-6Zm0 8v1.2l28 17.4 28-17.4V36H20Zm56 24V46.6L50.1 62.7c-1.3.8-2.9.8-4.2 0L20 46.6V60h56Z"/>
  <circle cx="67" cy="67" r="17" fill="#10b981"/>
  <path fill="#ffffff" d="M65.2 75.4 57.8 68l3.4-3.4 4 4L74 59.8l3.4 3.4-12.2 12.2Z"/>
</svg>
